<svg width="24" height="24" viewBox="0 0 24 24" fill="none" xmlns="http://www.w3.org/2000/svg">
<path d="M4 9.37029C4 9.07529 4 8.92778 4.01169 8.80355C4.12448 7.60528 5.02501 6.65735 6.16337 6.53863C6.2814 6.52632 6.42909 6.52632 6.72447 6.52632C6.83828 6.52632 6.89519 6.52632 6.94351 6.52324C7.56049 6.4839 8.10076 6.074 8.33132 5.47031C8.34937 5.42304 8.36625 5.36974 8.4 5.26316C8.43375 5.15657 8.45063 5.10328 8.46868 5.056C8.69924 4.45231 9.23951 4.04241 9.85649 4.00308C9.90481 4 9.95818 4 10.0649 4H13.9351C14.0418 4 14.0952 4 14.1435 4.00308C14.7605 4.04241 15.3008 4.45231 15.5313 5.056C15.5494 5.10328 15.5662 5.15657 15.6 5.26316C15.6338 5.36974 15.6506 5.42304 15.6687 5.47031C15.8992 6.074 16.4395 6.4839 17.0565 6.52324C17.1048 6.52632 17.1617 6.52632 17.2755 6.52632C17.5709 6.52632 17.7186 6.52632 17.8366 6.53863C18.975 6.65735 19.8755 7.60528 19.9883 8.80355C20 8.92778 20 9.07529 20 9.37029V15.9579C20 17.3728 20 18.0802 19.7384 18.6206C19.5083 19.096 19.1412 19.4824 18.6896 19.7246C18.1762 20 17.5041 20 16.16 20H7.84C6.49587 20 5.82381 20 5.31042 19.7246C4.85883 19.4824 4.49168 19.096 4.26158 18.6206C4 18.0802 4 17.3728 4 15.9579V9.37029Z" stroke="#F3F3F3" stroke-linecap="round" stroke-linejoin="round"/>
<path d="M12 16.2105C13.7673 16.2105 15.2 14.7024 15.2 12.8421C15.2 10.9818 13.7673 9.47368 12 9.47368C10.2327 9.47368 8.8 10.9818 8.8 12.8421C8.8 14.7024 10.2327 16.2105 12 16.2105Z" stroke="#F3F3F3" stroke-linecap="round" stroke-linejoin="round"/>
</svg>
