<svg width="24" height="24" viewBox="0 0 24 24" fill="none" xmlns="http://www.w3.org/2000/svg">
<path d="M9.96281 17.8969L10.4196 18.9484C10.5554 19.2615 10.7769 19.5274 11.0575 19.7141C11.338 19.9007 11.6654 20.0001 12 20C12.3346 20.0001 12.662 19.9007 12.9425 19.7141C13.2231 19.5274 13.4446 19.2615 13.5804 18.9484L14.0372 17.8969C14.1998 17.5238 14.4733 17.2127 14.8187 17.008C15.1663 16.8027 15.5685 16.7153 15.9676 16.7582L17.0852 16.88C17.4178 16.916 17.7536 16.8525 18.0517 16.6971C18.3498 16.5417 18.5974 16.3011 18.7646 16.0044C18.932 15.708 19.0117 15.3682 18.9941 15.0263C18.9766 14.6844 18.8624 14.355 18.6656 14.0782L18.0039 13.1476C17.7683 12.8137 17.6424 12.4119 17.6444 12C17.6443 11.5893 17.7714 11.1891 18.0074 10.8569L18.6691 9.92622C18.8659 9.6494 18.98 9.32006 18.9976 8.97814C19.0152 8.63622 18.9354 8.29643 18.7681 8C18.6009 7.70339 18.3532 7.46279 18.0551 7.30738C17.757 7.15197 17.4213 7.08842 17.0886 7.12444L15.971 7.24622C15.5719 7.28913 15.1698 7.2017 14.8222 6.99644C14.4761 6.7906 14.2025 6.47789 14.0407 6.10311L13.5804 5.05156C13.4446 4.73854 13.2231 4.47257 12.9425 4.28592C12.662 4.09927 12.3346 3.99994 12 4C11.6654 3.99994 11.338 4.09927 11.0575 4.28592C10.7769 4.47257 10.5554 4.73854 10.4196 5.05156L9.96281 6.10311C9.80098 6.47789 9.5274 6.7906 9.18128 6.99644C8.83367 7.2017 8.43154 7.28913 8.03243 7.24622L6.91137 7.12444C6.5787 7.08842 6.24296 7.15197 5.94486 7.30738C5.64677 7.46279 5.39912 7.70339 5.23195 8C5.06456 8.29643 4.98481 8.63622 5.00239 8.97814C5.01996 9.32006 5.13409 9.6494 5.33094 9.92622L5.99264 10.8569C6.22861 11.1891 6.35569 11.5893 6.35561 12C6.35569 12.4107 6.22861 12.8109 5.99264 13.1431L5.33094 14.0738C5.13409 14.3506 5.01996 14.6799 5.00239 15.0219C4.98481 15.3638 5.06456 15.7036 5.23195 16C5.39929 16.2965 5.64696 16.5369 5.94501 16.6923C6.24307 16.8477 6.57872 16.9113 6.91137 16.8756L8.02896 16.7538C8.42806 16.7109 8.8302 16.7983 9.17781 17.0036C9.52522 17.2088 9.80007 17.5216 9.96281 17.8969Z" stroke="#F3F3F3" stroke-linecap="round" stroke-linejoin="round"/>
<path d="M11.9986 14.4C13.2935 14.4 14.3432 13.3255 14.3432 12C14.3432 10.6745 13.2935 9.6 11.9986 9.6C10.7037 9.6 9.65401 10.6745 9.65401 12C9.65401 13.3255 10.7037 14.4 11.9986 14.4Z" stroke="#F3F3F3" stroke-linecap="round" stroke-linejoin="round"/>
</svg>
