<svg width="24" height="24" viewBox="0 0 24 24" fill="none" xmlns="http://www.w3.org/2000/svg">
<path d="M4.5 4L4.5 20" stroke="#F3F3F3" stroke-linecap="round"/>
<path d="M4.5 6.5H15C15.8284 6.5 16.5 7.17157 16.5 8V9C16.5 9.82843 15.8284 10.5 15 10.5H4.5V6.5Z" stroke="#F3F3F3"/>
<path d="M4.5 10.5H18C18.8284 10.5 19.5 11.1716 19.5 12V13C19.5 13.8284 18.8284 14.5 18 14.5H4.5V10.5Z" stroke="#F3F3F3"/>
<path d="M4.5 14.5H12C12.8284 14.5 13.5 15.1716 13.5 16V17C13.5 17.8284 12.8284 18.5 12 18.5H4.5V14.5Z" stroke="#F3F3F3"/>
</svg>
